<svg width="138" height="207" viewBox="0 0 138 207" fill="none" xmlns="http://www.w3.org/2000/svg">
<path d="M34.5 207C53.544 207 69 191.544 69 172.5V138H34.5C15.456 138 0 153.456 0 172.5C0 191.544 15.456 207 34.5 207Z" fill="#0ACF83"/>
<path d="M0 103.5C0 84.456 15.456 69 34.5 69H69V138H34.5C15.456 138 0 122.544 0 103.5Z" fill="#A259FF"/>
<path d="M0 34.5C0 15.456 15.456 0 34.5 0H69V69H34.5C15.456 69 0 53.544 0 34.5Z" fill="#F24E1E"/>
<path d="M69 0H103.5C122.544 0 138 15.456 138 34.5C138 53.544 122.544 69 103.5 69H69V0Z" fill="#FF7262"/>
<path d="M138 103.5C138 122.544 122.544 138 103.5 138C84.456 138 69 122.544 69 103.5C69 84.456 84.456 69 103.5 69C122.544 69 138 84.456 138 103.5Z" fill="#1ABCFE"/>
</svg>
