<svg width="189" height="197" viewBox="0 0 189 197" fill="none" xmlns="http://www.w3.org/2000/svg">
<path fill-rule="evenodd" clip-rule="evenodd" d="M32.5874 34.5384C38.7149 39.5162 41.0136 39.1364 52.5193 38.3688L160.992 31.8555C163.292 31.8555 161.379 29.5603 160.612 29.1789L142.597 16.1555C139.145 13.4758 134.546 10.4067 125.732 11.1744L20.6984 18.8353C16.868 19.2151 16.1028 21.1303 17.6285 22.6656L32.5874 34.5384ZM39.1 59.8175V173.949C39.1 180.083 42.1652 182.378 49.0643 181.998L168.275 175.1C175.178 174.721 175.946 170.502 175.946 165.519V52.1534C175.946 47.1787 174.033 44.4958 169.807 44.8788L45.2307 52.1534C40.6334 52.5397 39.1 54.8395 39.1 59.8175ZM156.785 65.9398C157.549 69.3904 156.785 72.8377 153.328 73.2254L147.584 74.3699V158.629C142.597 161.31 137.998 162.842 134.166 162.842C128.031 162.842 126.494 160.925 121.899 155.184L84.3275 96.2016V153.268L96.2164 155.951C96.2164 155.951 96.2164 162.842 86.6245 162.842L60.1818 164.376C59.4136 162.842 60.1818 159.015 62.8638 158.248L69.7643 156.336V80.8832L60.1833 80.1155C59.4151 76.665 61.3287 71.6901 66.699 71.304L95.0663 69.3918L134.166 129.142V76.285L124.197 75.1407C123.432 70.9226 126.494 67.8597 130.328 67.4798L156.785 65.9398ZM11.8796 8.49469L121.132 0.449261C134.548 -0.701432 138 0.0693583 146.432 6.19487L181.307 30.7063C187.061 34.9213 188.979 36.0689 188.979 40.6638V175.1C188.979 183.526 185.91 188.509 175.179 189.271L48.3053 196.932C40.2501 197.317 36.4163 196.169 32.1978 190.803L6.51561 157.482C1.91366 151.349 0 146.76 0 141.391V21.8948C0 15.0048 3.07005 9.25763 11.8796 8.49469Z" fill="black"/>
</svg>
