<svg width="174" height="174" viewBox="0 0 174 174" fill="none" xmlns="http://www.w3.org/2000/svg">
<path d="M36.557 109.955C36.557 120.015 28.3388 128.233 18.2785 128.233C8.21824 128.233 0 120.015 0 109.955C0 99.8945 8.21824 91.6763 18.2785 91.6763H36.557V109.955Z" fill="#E01E5A"/>
<path d="M45.7671 109.955C45.7671 99.8945 53.9853 91.6763 64.0456 91.6763C74.1059 91.6763 82.3241 99.8945 82.3241 109.955V155.722C82.3241 165.782 74.1059 174 64.0456 174C53.9853 174 45.7671 165.782 45.7671 155.722V109.955Z" fill="#E01E5A"/>
<path d="M64.0456 36.557C53.9853 36.557 45.7671 28.3388 45.7671 18.2785C45.7671 8.21824 53.9853 0 64.0456 0C74.1059 0 82.3241 8.21824 82.3241 18.2785V36.557H64.0456Z" fill="#36C5F0"/>
<path d="M64.0456 45.7666C74.1059 45.7666 82.3241 53.9848 82.3241 64.0451C82.3241 74.1054 74.1059 82.3236 64.0456 82.3236H18.2785C8.21824 82.3236 0 74.1054 0 64.0451C0 53.9848 8.21824 45.7666 18.2785 45.7666H64.0456Z" fill="#36C5F0"/>
<path d="M137.443 64.0456C137.443 53.9853 145.661 45.7671 155.722 45.7671C165.782 45.7671 174 53.9853 174 64.0456C174 74.1059 165.782 82.3241 155.722 82.3241H137.443V64.0456Z" fill="#2EB67D"/>
<path d="M128.233 64.0456C128.233 74.1059 120.015 82.3241 109.954 82.3241C99.894 82.3241 91.6758 74.1059 91.6758 64.0456V18.2785C91.6758 8.21824 99.894 0 109.954 0C120.015 0 128.233 8.21824 128.233 18.2785V64.0456Z" fill="#2EB67D"/>
<path d="M109.954 137.443C120.015 137.443 128.233 145.662 128.233 155.722C128.233 165.782 120.015 174 109.954 174C99.894 174 91.6758 165.782 91.6758 155.722V137.443H109.954Z" fill="#ECB22E"/>
<path d="M109.954 128.233C99.894 128.233 91.6758 120.015 91.6758 109.955C91.6758 99.8945 99.894 91.6763 109.954 91.6763H155.721C165.782 91.6763 174 99.8945 174 109.955C174 120.015 165.782 128.233 155.721 128.233H109.954Z" fill="#ECB22E"/>
</svg>
